# xmcd
#
# Track frame offsets:
#	150
#	42971
#	83001
#	121954
#	152205
#	194605
#	229500
#	268848
#
# Disc length: 4074 seconds
#
# Revision: 0
# Processed by: cddbd v1.5.2PL0 Copyright (c) Steve Scherf et al.
# Submitted via: dBpowerAMP V4.0
#
DISCID=650fe808
DTITLE=Callan Method - Callan Stage 7
DYEAR=2006
DGENRE=Speech
TTITLE0=Lesson 85
TTITLE1=Lesson 86
TTITLE2=Lesson 87
TTITLE3=Lesson 88
TTITLE4=Lesson 89
TTITLE5=Lesson 90
TTITLE6=Lesson 91
TTITLE7=Lesson 92
EXTD=
EXTT0=
EXTT1=
EXTT2=
EXTT3=
EXTT4=
EXTT5=
EXTT6=
EXTT7=
PLAYORDER=
